<svg xmlns="http://www.w3.org/2000/svg" xmlns:xlink="http://www.w3.org/1999/xlink" width="48" height="48" viewBox="0 0 48 48"><defs><linearGradient id="a"><stop style="stop-color:#fff;stop-opacity:.09803922" offset="0"/><stop style="stop-color:#fff;stop-opacity:0" offset="1"/></linearGradient><radialGradient xlink:href="#a" id="c" cx="-98.23" cy="3.47" fx="-98.23" fy="3.47" r="22.67" gradientTransform="matrix(0 1.97476 -2.11722 0 8.68 1199.59)" gradientUnits="userSpaceOnUse"/><filter style="color-interpolation-filters:sRGB" id="b" x="-.02" width="1.05" y="-.02" height="1.05"><feGaussianBlur stdDeviation=".45"/></filter></defs><path style="color:#000;font-style:normal;font-variant:normal;font-weight:400;font-stretch:normal;font-size:medium;line-height:normal;font-family:sans-serif;text-indent:0;text-align:start;text-decoration:none;text-decoration-line:none;text-decoration-style:solid;text-decoration-color:#000;letter-spacing:normal;word-spacing:normal;text-transform:none;direction:ltr;block-progression:tb;writing-mode:lr-tb;baseline-shift:baseline;text-anchor:start;white-space:normal;clip-rule:nonzero;display:inline;overflow:visible;visibility:visible;opacity:1;isolation:auto;mix-blend-mode:normal;color-interpolation:sRGB;color-interpolation-filters:linearRGB;solid-color:#000;solid-opacity:1;fill:#263238;fill-opacity:.4;fill-rule:evenodd;stroke:none;stroke-width:2.5;stroke-linecap:round;stroke-linejoin:miter;stroke-miterlimit:4;stroke-dasharray:none;stroke-dashoffset:0;stroke-opacity:1;filter:url(#b);color-rendering:auto;image-rendering:auto;shape-rendering:auto;text-rendering:auto;enable-background:accumulate" d="M2.61 1006.35a1.25 1.25 0 0 0-1 2.03l3.6 4.66a3 3 0 0 0-.2 1.07v7a3 3 0 0 0 3 3h32a3 3 0 0 0 3-3v-7a3 3 0 0 0-.21-1.07l3.6-4.66a1.25 1.25 0 0 0-1.05-2.03 1.3 1.3 0 0 0-.93.5l-3.43 4.44q-.47-.16-.99-.18H8q-.52 0-.99.18l-3.43-4.44a1.3 1.3 0 0 0-.97-.5m5.4 18.76q-.33 0-.61.06a3 3 0 0 0-2.4 2.91v20.04a3 3 0 0 0 3 3h32a3 3 0 0 0 3-3v-20.04a2.97 2.97 0 0 0-3-2.97z" transform="translate(0 -1004.36)"/><path style="fill:#8ab000;fill-opacity:1;fill-rule:evenodd;stroke:#769616;stroke-width:2.5;stroke-linecap:round;stroke-linejoin:miter;stroke-miterlimit:4;stroke-dasharray:none;stroke-opacity:1" d="m2.59 1006.86 4.25 5.5" transform="matrix(-1 0 0 1 48 -1004.36)"/><path d="M2.61 1005.6q-.66.05-.98.46c2.03 2.4 2.37 2.79 5.14 6.22 1.02 1.32 2.08.64 1.06-.68l-4.25-5.5a1.3 1.3 0 0 0-.97-.5" style="color:#000;font-style:normal;font-variant:normal;font-weight:400;font-stretch:normal;font-size:medium;line-height:normal;font-family:sans-serif;text-indent:0;text-align:start;text-decoration:none;text-decoration-line:none;text-decoration-style:solid;text-decoration-color:#000;letter-spacing:normal;word-spacing:normal;text-transform:none;direction:ltr;block-progression:tb;writing-mode:lr-tb;baseline-shift:baseline;text-anchor:start;white-space:normal;clip-rule:nonzero;display:inline;overflow:visible;visibility:visible;opacity:1;isolation:auto;mix-blend-mode:normal;color-interpolation:sRGB;color-interpolation-filters:linearRGB;solid-color:#000;solid-opacity:1;fill:#fff;fill-opacity:.29803923;fill-rule:evenodd;stroke:none;stroke-width:2.5;stroke-linecap:round;stroke-linejoin:miter;stroke-miterlimit:4;stroke-dasharray:none;stroke-dashoffset:0;stroke-opacity:1;color-rendering:auto;image-rendering:auto;shape-rendering:auto;text-rendering:auto;enable-background:accumulate" transform="matrix(-1 0 0 1 48 -1004.36)"/><path d="M1.62 1006.07c-.12.15-.56.8-.02 1.56l4.25 5.5c1.02 1.32 1.15-.62 1.15-.62s-3.73-4.5-5.38-6.44" style="color:#000;font-style:normal;font-variant:normal;font-weight:400;font-stretch:normal;font-size:medium;line-height:normal;font-family:sans-serif;text-indent:0;text-align:start;text-decoration:none;text-decoration-line:none;text-decoration-style:solid;text-decoration-color:#000;letter-spacing:normal;word-spacing:normal;text-transform:none;direction:ltr;block-progression:tb;writing-mode:lr-tb;baseline-shift:baseline;text-anchor:start;white-space:normal;clip-rule:nonzero;display:inline;overflow:visible;visibility:visible;opacity:1;isolation:auto;mix-blend-mode:normal;color-interpolation:sRGB;color-interpolation-filters:linearRGB;solid-color:#000;solid-opacity:1;fill:#263238;fill-opacity:.2;fill-rule:evenodd;stroke:none;stroke-width:2.5;stroke-linecap:round;stroke-linejoin:miter;stroke-miterlimit:4;stroke-dasharray:none;stroke-dashoffset:0;stroke-opacity:1;color-rendering:auto;image-rendering:auto;shape-rendering:auto;text-rendering:auto;enable-background:accumulate" transform="matrix(-1 0 0 1 48 -1004.36)"/><path d="M2.34 1005.84c-.44 0-.96.15-.83.8.1.5 4.66 6.08 4.66 6.08 1.02 1.32 2.5.67 1.48-.65l-4.24-5.47c-.26-.29-.6-.74-1.07-.76" style="color:#000;font-style:normal;font-variant:normal;font-weight:400;font-stretch:normal;font-size:medium;line-height:normal;font-family:sans-serif;text-indent:0;text-align:start;text-decoration:none;text-decoration-line:none;text-decoration-style:solid;text-decoration-color:#000;letter-spacing:normal;word-spacing:normal;text-transform:none;direction:ltr;block-progression:tb;writing-mode:lr-tb;baseline-shift:baseline;text-anchor:start;white-space:normal;clip-rule:nonzero;display:inline;overflow:visible;visibility:visible;opacity:1;isolation:auto;mix-blend-mode:normal;color-interpolation:sRGB;color-interpolation-filters:linearRGB;solid-color:#000;solid-opacity:1;fill:#8ab000;fill-opacity:1;fill-rule:evenodd;stroke:none;stroke-width:2.5;stroke-linecap:round;stroke-linejoin:miter;stroke-miterlimit:4;stroke-dasharray:none;stroke-dashoffset:0;stroke-opacity:1;color-rendering:auto;image-rendering:auto;shape-rendering:auto;text-rendering:auto;enable-background:accumulate" transform="matrix(-1 0 0 1 48 -1004.36)"/><path d="m2.59 1006.86 4.25 5.5" style="fill:#8ab000;fill-opacity:1;fill-rule:evenodd;stroke:#769616;stroke-width:2.5;stroke-linecap:round;stroke-linejoin:miter;stroke-miterlimit:4;stroke-dasharray:none;stroke-opacity:1" transform="translate(0 -1004.36)"/><path style="color:#000;font-style:normal;font-variant:normal;font-weight:400;font-stretch:normal;font-size:medium;line-height:normal;font-family:sans-serif;text-indent:0;text-align:start;text-decoration:none;text-decoration-line:none;text-decoration-style:solid;text-decoration-color:#000;letter-spacing:normal;word-spacing:normal;text-transform:none;direction:ltr;block-progression:tb;writing-mode:lr-tb;baseline-shift:baseline;text-anchor:start;white-space:normal;clip-rule:nonzero;display:inline;overflow:visible;visibility:visible;opacity:1;isolation:auto;mix-blend-mode:normal;color-interpolation:sRGB;color-interpolation-filters:linearRGB;solid-color:#000;solid-opacity:1;fill:#fff;fill-opacity:.29803923;fill-rule:evenodd;stroke:none;stroke-width:2.5;stroke-linecap:round;stroke-linejoin:miter;stroke-miterlimit:4;stroke-dasharray:none;stroke-dashoffset:0;stroke-opacity:1;color-rendering:auto;image-rendering:auto;shape-rendering:auto;text-rendering:auto;enable-background:accumulate" d="M2.61 1005.6q-.66.05-.98.46c2.03 2.4 2.37 2.79 5.14 6.22 1.02 1.32 2.08.64 1.06-.68l-4.25-5.5a1.3 1.3 0 0 0-.97-.5" transform="translate(0 -1004.36)"/><path style="color:#000;font-style:normal;font-variant:normal;font-weight:400;font-stretch:normal;font-size:medium;line-height:normal;font-family:sans-serif;text-indent:0;text-align:start;text-decoration:none;text-decoration-line:none;text-decoration-style:solid;text-decoration-color:#000;letter-spacing:normal;word-spacing:normal;text-transform:none;direction:ltr;block-progression:tb;writing-mode:lr-tb;baseline-shift:baseline;text-anchor:start;white-space:normal;clip-rule:nonzero;display:inline;overflow:visible;visibility:visible;opacity:1;isolation:auto;mix-blend-mode:normal;color-interpolation:sRGB;color-interpolation-filters:linearRGB;solid-color:#000;solid-opacity:1;fill:#263238;fill-opacity:.2;fill-rule:evenodd;stroke:none;stroke-width:2.5;stroke-linecap:round;stroke-linejoin:miter;stroke-miterlimit:4;stroke-dasharray:none;stroke-dashoffset:0;stroke-opacity:1;color-rendering:auto;image-rendering:auto;shape-rendering:auto;text-rendering:auto;enable-background:accumulate" d="M1.62 1006.07c-.12.15-.56.8-.02 1.56l4.25 5.5c1.02 1.32 1.15-.62 1.15-.62s-3.73-4.5-5.38-6.44" transform="translate(0 -1004.36)"/><path style="color:#000;font-style:normal;font-variant:normal;font-weight:400;font-stretch:normal;font-size:medium;line-height:normal;font-family:sans-serif;text-indent:0;text-align:start;text-decoration:none;text-decoration-line:none;text-decoration-style:solid;text-decoration-color:#000;letter-spacing:normal;word-spacing:normal;text-transform:none;direction:ltr;block-progression:tb;writing-mode:lr-tb;baseline-shift:baseline;text-anchor:start;white-space:normal;clip-rule:nonzero;display:inline;overflow:visible;visibility:visible;opacity:1;isolation:auto;mix-blend-mode:normal;color-interpolation:sRGB;color-interpolation-filters:linearRGB;solid-color:#000;solid-opacity:1;fill:#8ab000;fill-opacity:1;fill-rule:evenodd;stroke:none;stroke-width:2.5;stroke-linecap:round;stroke-linejoin:miter;stroke-miterlimit:4;stroke-dasharray:none;stroke-dashoffset:0;stroke-opacity:1;color-rendering:auto;image-rendering:auto;shape-rendering:auto;text-rendering:auto;enable-background:accumulate" d="M2.34 1005.84c-.44 0-.96.15-.83.8.1.5 4.66 6.08 4.66 6.08 1.02 1.32 2.5.67 1.48-.65l-4.24-5.47c-.26-.29-.6-.74-1.07-.76" transform="translate(0 -1004.36)"/><g transform="translate(42 -1004.36)"><rect style="opacity:1;fill:#aeea00;fill-opacity:1;stroke:none;stroke-width:3;stroke-linecap:round;stroke-linejoin:miter;stroke-miterlimit:3;stroke-dasharray:none;stroke-dashoffset:0;stroke-opacity:1" width="38" height="13" x="-37" y="1010.36" rx="3" ry="3"/><rect ry="3" rx="3" y="1013.36" x="-37" height="10" width="38" style="opacity:1;fill:#263238;fill-opacity:.2;stroke:none;stroke-width:3;stroke-linecap:round;stroke-linejoin:miter;stroke-miterlimit:3;stroke-dasharray:none;stroke-dashoffset:0;stroke-opacity:1"/><rect ry="3" rx="3" y="1010.36" x="-37" height="10" width="38" style="opacity:1;fill:#fff;fill-opacity:.29803923;stroke:none;stroke-width:3;stroke-linecap:round;stroke-linejoin:miter;stroke-miterlimit:3;stroke-dasharray:none;stroke-dashoffset:0;stroke-opacity:1"/><rect ry="2.54" rx="3" y="1011.36" x="-37" height="11" width="38" style="opacity:1;fill:#aeea00;fill-opacity:1;stroke:none;stroke-width:3;stroke-linecap:round;stroke-linejoin:miter;stroke-miterlimit:3;stroke-dasharray:none;stroke-dashoffset:0;stroke-opacity:1"/></g><g transform="translate(0 -1004.36)"><rect style="opacity:1;fill:#1976d2;fill-opacity:1;stroke:none;stroke-width:3;stroke-linecap:round;stroke-linejoin:miter;stroke-miterlimit:3;stroke-dasharray:none;stroke-dashoffset:0;stroke-opacity:1" width="38" height="26" x="5" y="1024.36" rx="3" ry="3"/><rect ry="3" rx="3" y="1037.36" x="5" height="13" width="38" style="opacity:1;fill:#263238;fill-opacity:.2;stroke:none;stroke-width:3;stroke-linecap:round;stroke-linejoin:miter;stroke-miterlimit:3;stroke-dasharray:none;stroke-dashoffset:0;stroke-opacity:1"/><rect ry="3" rx="3" y="1024.36" x="5" height="13" width="38" style="opacity:1;fill:#fff;fill-opacity:.2;stroke:none;stroke-width:3;stroke-linecap:round;stroke-linejoin:miter;stroke-miterlimit:3;stroke-dasharray:none;stroke-dashoffset:0;stroke-opacity:1"/><rect ry="2.77" rx="3" y="1025.36" x="5" height="24" width="38" style="opacity:1;fill:#1976d2;fill-opacity:1;stroke:none;stroke-width:3;stroke-linecap:round;stroke-linejoin:miter;stroke-miterlimit:3;stroke-dasharray:none;stroke-dashoffset:0;stroke-opacity:1"/></g><g transform="translate(0 9)"><path style="color:#000;font-style:normal;font-variant:normal;font-weight:400;font-stretch:normal;font-size:medium;line-height:normal;font-family:sans-serif;text-indent:0;text-align:start;text-decoration:none;text-decoration-line:none;text-decoration-style:solid;text-decoration-color:#000;letter-spacing:normal;word-spacing:normal;text-transform:none;direction:ltr;block-progression:tb;writing-mode:lr-tb;baseline-shift:baseline;text-anchor:start;white-space:normal;clip-rule:nonzero;display:inline;overflow:visible;visibility:visible;opacity:1;isolation:auto;mix-blend-mode:normal;color-interpolation:sRGB;color-interpolation-filters:linearRGB;solid-color:#000;solid-opacity:1;fill:#0d47a1;fill-opacity:1;fill-rule:nonzero;stroke:none;stroke-width:3;stroke-linecap:round;stroke-linejoin:miter;stroke-miterlimit:4;stroke-dasharray:none;stroke-dashoffset:0;stroke-opacity:1;color-rendering:auto;image-rendering:auto;shape-rendering:auto;text-rendering:auto;enable-background:accumulate" d="M24 17.75a6.3 6.3 0 0 0-6.03 4.65h3.21A3.2 3.2 0 0 1 24 20.75 3.23 3.23 0 0 1 27.25 24 3.23 3.23 0 0 1 24 27.25c-1.3 0-2.41-.75-2.93-1.85h-3.15A6.3 6.3 0 0 0 24 30.25 6.27 6.27 0 0 0 30.25 24 6.27 6.27 0 0 0 24 17.75"/><circle style="opacity:1;fill:none;fill-opacity:.40392157;stroke:#0d47a1;stroke-width:1.89999998;stroke-linecap:round;stroke-linejoin:miter;stroke-miterlimit:4;stroke-dasharray:none;stroke-dashoffset:0;stroke-opacity:1" cx="24" cy="24" r="9.55"/></g><g transform="translate(0 -1003.86)"><ellipse cy="1016.49" cx="14.38" style="opacity:1;fill:#263238;fill-opacity:.2;stroke:none;stroke-width:1.89999998;stroke-linecap:round;stroke-linejoin:miter;stroke-miterlimit:4;stroke-dasharray:none;stroke-dashoffset:0;stroke-opacity:.69721117" rx="3.38" ry="3.88"/><circle style="opacity:1;fill:#fff;fill-opacity:1;stroke:none;stroke-width:1.89999998;stroke-linecap:round;stroke-linejoin:miter;stroke-miterlimit:4;stroke-dasharray:none;stroke-dashoffset:0;stroke-opacity:.69721117" cx="14.38" cy="1016.99" r="3.38"/></g><g transform="translate(19.5 -1003.86)"><ellipse ry="3.88" rx="3.38" style="opacity:1;fill:#263238;fill-opacity:.2;stroke:none;stroke-width:1.89999998;stroke-linecap:round;stroke-linejoin:miter;stroke-miterlimit:4;stroke-dasharray:none;stroke-dashoffset:0;stroke-opacity:.69721117" cx="14.38" cy="1016.49"/><circle r="3.38" cy="1016.99" cx="14.38" style="opacity:1;fill:#fff;fill-opacity:1;stroke:none;stroke-width:1.89999998;stroke-linecap:round;stroke-linejoin:miter;stroke-miterlimit:4;stroke-dasharray:none;stroke-dashoffset:0;stroke-opacity:.69721117"/></g><path d="M2.61 1005.6a1.25 1.25 0 0 0-1 2.03l3.6 4.66a3 3 0 0 0-.2 1.07v7a3 3 0 0 0 3 3h32a3 3 0 0 0 3-3v-7a3 3 0 0 0-.21-1.07l3.6-4.66a1.25 1.25 0 0 0-1.05-2.03 1.3 1.3 0 0 0-.93.5l-3.43 4.44q-.47-.16-.99-.18H8q-.52 0-.99.18l-3.43-4.44a1.3 1.3 0 0 0-.97-.5m5.4 18.76q-.33 0-.61.06a3 3 0 0 0-2.4 2.91v20.04a3 3 0 0 0 3 3h32a3 3 0 0 0 3-3v-20.04a2.97 2.97 0 0 0-3-2.97z" style="color:#000;font-style:normal;font-variant:normal;font-weight:400;font-stretch:normal;font-size:medium;line-height:normal;font-family:sans-serif;text-indent:0;text-align:start;text-decoration:none;text-decoration-line:none;text-decoration-style:solid;text-decoration-color:#000;letter-spacing:normal;word-spacing:normal;text-transform:none;direction:ltr;block-progression:tb;writing-mode:lr-tb;baseline-shift:baseline;text-anchor:start;white-space:normal;clip-rule:nonzero;display:inline;overflow:visible;visibility:visible;opacity:1;isolation:auto;mix-blend-mode:normal;color-interpolation:sRGB;color-interpolation-filters:linearRGB;solid-color:#000;solid-opacity:1;fill:url(#c);fill-opacity:1;fill-rule:evenodd;stroke:none;stroke-width:2.5;stroke-linecap:round;stroke-linejoin:miter;stroke-miterlimit:4;stroke-dasharray:none;stroke-dashoffset:0;stroke-opacity:1;color-rendering:auto;image-rendering:auto;shape-rendering:auto;text-rendering:auto;enable-background:accumulate" transform="translate(0 -1004.36)"/></svg>